<svg width="444" height="97" viewBox="0 0 444 97" fill="none" xmlns="http://www.w3.org/2000/svg">
<path fill-rule="evenodd" clip-rule="evenodd" d="M89.4797 75.4352C87.4685 78.0218 84.6297 80.0257 80.8934 80.0257C75.1633 80.0257 71.7167 75.9816 69.6295 71.9416C67.5463 67.909 66.1723 62.6992 64.9664 58.0601C64.9272 57.9092 64.8881 57.7589 64.8492 57.6091C63.6249 52.8968 62.5492 48.7566 61.1116 45.7156C59.5798 42.4755 58.4078 42.063 57.6586 42.063C57.2951 42.063 56.3488 42.2888 54.6668 44.8113C53.4035 46.7058 52.2445 49.0818 50.89 51.8585C50.5066 52.6443 50.1076 53.4622 49.6862 54.3104C47.8885 57.9285 45.7199 61.9965 42.8464 65.1584C39.883 68.4192 35.9265 70.9751 30.6764 70.9751C24.9557 70.9751 21.4273 69.1543 18.3641 67.5737C18.0386 67.4057 17.7183 67.2404 17.4012 67.0804C14.3626 65.5463 10.9178 64.0341 3.97042 64.0341H0V56.0433H3.97042C12.458 56.0433 17.1264 58.0015 20.9621 59.938C21.3037 60.1104 21.6308 60.2778 21.9468 60.4394C24.9357 61.9682 26.9222 62.9842 30.6764 62.9842C33.0462 62.9842 35.0233 61.926 36.9864 59.7658C39.0394 57.5068 40.79 54.3467 42.5837 50.7368C42.9213 50.0573 43.2643 49.3527 43.6131 48.6362C45.0006 45.7861 46.4793 42.7486 48.0728 40.3589C50.0056 37.4604 53.0255 34.0722 57.6586 34.0722C63.2803 34.0722 66.4492 38.405 68.2824 42.2829C70.0544 46.0313 71.3027 50.8463 72.439 55.2295C72.5093 55.5007 72.5792 55.7703 72.6487 56.0378C73.9099 60.8894 75.0812 65.1702 76.6752 68.2557C78.2653 71.3337 79.6281 72.0349 80.8934 72.0349C81.4667 72.0349 82.2114 71.8155 83.2257 70.5111C84.3061 69.1216 85.3661 66.874 86.3485 63.7188C88.3063 57.4307 89.5662 48.8838 90.7617 39.9243C90.8954 38.9223 91.0283 37.9147 91.1615 36.9056C92.1922 29.0929 93.2354 21.1859 94.7462 15.0393C95.5948 11.5871 96.6714 8.32845 98.18 5.85117C99.6807 3.38704 102.147 0.88623 105.877 0.88623C110.563 0.88623 112.782 4.91291 113.787 7.8257C114.891 11.0286 115.425 15.2265 115.701 19.6191C116.095 25.8676 116.002 33.3575 115.914 40.371C115.878 43.2421 115.843 46.0333 115.843 48.6268C115.843 57.6362 116.591 68.3045 118.188 76.6238C118.993 80.8194 119.968 84.1627 121.038 86.3599C121.515 87.3405 121.93 87.9204 122.221 88.2299C122.365 88.0858 122.569 87.8336 122.829 87.4007C123.606 86.1064 124.366 83.965 125.042 80.9305C126.383 74.9174 127.117 66.7544 127.777 58.2465C127.86 57.1747 127.942 56.0972 128.024 55.0191C128.58 47.709 129.138 40.3745 130.074 34.6603C130.606 31.4098 131.309 28.3467 132.358 26.0066C133.28 23.9484 135.266 20.7475 139.105 20.7475C142.648 20.7475 144.85 23.1403 146.06 25.4202C147.243 27.6468 147.934 30.5056 148.4 33.4177C149.24 38.6653 149.528 45.4107 149.809 51.9991C149.843 52.7886 149.876 53.5759 149.911 54.358C150.242 61.8814 150.651 68.9658 151.799 74.1475C152.377 76.7564 153.064 78.4906 153.752 79.4897C154.333 80.3323 154.654 80.3317 154.835 80.3314L154.845 80.3314C154.846 80.3314 154.835 80.3359 154.854 80.3273C154.888 80.3113 155.011 80.246 155.214 80.0473C155.659 79.6124 156.229 78.7973 156.887 77.4343C158.013 75.1035 158.985 72.0894 160.102 68.6257C160.313 67.9705 160.53 67.2993 160.754 66.6135C162.082 62.5415 163.664 57.9726 165.888 54.4122C168.127 50.8277 171.585 47.3969 176.83 47.3969C182.415 47.3969 186.077 50.435 188.647 52.5666C188.704 52.6141 188.761 52.6612 188.817 52.7077C191.602 55.0161 193.185 56.1962 195.568 56.1962H199.538V64.187H195.568C190.158 64.187 186.558 61.1948 184.046 59.1059C183.952 59.028 183.86 58.9513 183.769 58.8761C181.037 56.6123 179.366 55.3877 176.83 55.3877C175.58 55.3877 174.229 56.0737 172.611 58.6644C170.978 61.2793 169.656 64.944 168.298 69.1056C168.102 69.709 167.903 70.3259 167.702 70.9504C166.598 74.3853 165.42 78.0473 164.029 80.9273C163.196 82.6519 162.147 84.4098 160.75 85.7761C159.286 87.2094 157.311 88.3222 154.845 88.3222C151.401 88.3222 148.881 86.4431 147.227 84.0434C145.67 81.7841 144.708 78.8633 144.048 75.8862C142.721 69.8959 142.302 62.0843 141.978 54.7117C141.944 53.9326 141.91 53.1581 141.877 52.3898C141.589 45.6776 141.321 39.4399 140.561 34.6882C140.214 32.5203 139.801 30.9293 139.365 29.8549C138.843 31.2319 138.35 33.2652 137.909 35.9597C137.034 41.301 136.505 48.2351 135.944 55.6058C135.861 56.6852 135.778 57.7739 135.693 58.8684C135.042 67.2677 134.277 76.0119 132.791 82.6793C132.054 85.985 131.069 89.127 129.627 91.5312C128.181 93.9401 125.77 96.3673 122.116 96.3673C119.949 96.3673 118.186 95.3844 116.888 94.1584C115.633 92.9733 114.67 91.442 113.907 89.8753C112.38 86.7379 111.245 82.5861 110.391 78.1395C108.67 69.1744 107.903 57.9702 107.903 48.6268C107.903 45.7954 107.939 42.8578 107.976 39.9035C108.063 33.0248 108.15 26.0554 107.776 20.1246C107.509 15.8751 107.02 12.5778 106.285 10.4462C106.042 9.74265 105.833 9.31545 105.679 9.06341C105.503 9.23466 105.252 9.53188 104.951 10.0265C104.09 11.4401 103.246 13.74 102.455 16.958C101.058 22.6413 100.077 30.0616 99.0314 37.9743C98.8996 38.9717 98.7668 39.9771 98.6319 40.9877C97.454 49.8154 96.1218 59.0556 93.9261 66.1079C92.8317 69.6229 91.4246 72.9338 89.4797 75.4352ZM105.404 8.7331C105.406 8.72603 105.436 8.7412 105.489 8.79982C105.43 8.76947 105.403 8.74017 105.404 8.7331ZM140.115 28.3854C140.116 28.3891 140.096 28.414 140.056 28.4489C140.094 28.3992 140.114 28.3817 140.115 28.3854ZM138.702 28.6333C138.672 28.6134 138.658 28.5979 138.658 28.5951C138.658 28.5923 138.673 28.6022 138.702 28.6333ZM121.972 88.4085C121.972 88.4041 121.993 88.3911 122.037 88.3831C121.994 88.409 121.972 88.413 121.972 88.4085Z" fill="url(#paint0_linear_3751_14070)"/>
<path d="M213.532 78.5442H222.648V42.969H213.532V78.5442Z" fill="white"/>
<path d="M227.579 78.5442H236.692V56.7852L244.251 67.0774H249.921L257.592 56.6174V78.5442H266.702V44.0594L258.592 41.9062L247.03 57.6802L235.635 42.13L227.579 44.0594V78.5442Z" fill="white"/>
<path d="M371.259 79.7189L380.755 77.4402L371.371 64.4484C375.595 62.8263 377.818 59.1345 377.818 54.3799C377.818 47.8914 373.205 42.969 365.534 42.969H346.524V78.5442H355.64V65.9027H362.31L371.259 79.7189ZM355.64 58.2954V50.5763H364.923C367.202 50.5763 368.647 52.1984 368.647 54.4918C368.647 56.6733 367.202 58.2954 364.923 58.2954H355.64Z" fill="white"/>
<path d="M271.663 78.5442H280.776V56.7852L288.335 67.0774H294.005L301.676 56.6174V78.5442H310.786V44.0594L302.676 41.9062L291.115 57.6802L279.719 42.13L271.663 44.0594V78.5442Z" fill="white"/>
<path d="M398.283 79.1036C407.122 79.1036 412.458 75.0203 412.458 67.8045C412.458 61.5397 408.789 58.7989 402.174 57.4564L396.727 56.3377C393.114 55.6105 391.947 54.4918 391.947 52.9815C391.947 51.1916 393.559 49.9051 397.005 49.9051C399.903 49.9051 401.847 50.8226 403.18 52.8508L411.513 50.856C409.011 45.3183 403.953 42.4097 396.783 42.4097C388.278 42.4097 382.997 46.4371 382.997 53.429C382.997 59.4142 386.833 62.7144 393.336 64.0568L398.506 65.1196C402.341 65.9027 403.453 67.0214 403.453 68.4198C403.453 70.4895 401.118 71.6082 397.894 71.6082C394.629 71.6082 391.895 70.3921 390.188 67.3703L381.83 69.3707C383.498 75.4118 388.723 79.1036 398.283 79.1036Z" fill="white"/>
<path fill-rule="evenodd" clip-rule="evenodd" d="M441.031 42.9691H417.061V78.5443H441.03L443.054 70.8251H426.177V64.3925H440.28V56.6734H426.177V50.6882H443.055L441.031 42.9691Z" fill="white"/>
<path fill-rule="evenodd" clip-rule="evenodd" d="M339.713 42.9675H315.743V78.5427H339.713L341.737 70.8236H324.859V64.391H338.962V56.6718H324.859V50.6867H341.737L339.713 42.9675Z" fill="white"/>
<defs>
<linearGradient id="paint0_linear_3751_14070" x1="-2.41585e-06" y1="96.3672" x2="201.643" y2="91.6945" gradientUnits="userSpaceOnUse">
<stop stop-color="#FFD233"/>
<stop offset="0.458521" stop-color="#FF7333"/>
<stop offset="0.633213" stop-color="#334AFF"/>
<stop offset="1" stop-color="#33FFC2"/>
</linearGradient>
</defs>
</svg>
