<svg width="206" height="72" viewBox="0 0 206 72" fill="none" xmlns="http://www.w3.org/2000/svg">
<g filter="url(#filter0_d_4317_15975)">
<path d="M24 46.8987H30.2626V24.6642H24V46.8987Z" fill="#33FFC2"/>
<path d="M33.65 46.8987H39.9101V33.2993L45.1035 39.732H48.9986L54.2683 33.1945V46.8987H60.5268V25.3457L54.9557 24L47.0129 33.8587L39.1846 24.1398L33.65 25.3457V46.8987Z" fill="#33FFC2"/>
<path d="M132.356 47.6329L138.88 46.2087L132.433 38.0888C135.335 37.075 136.862 34.7676 136.862 31.7961C136.862 27.7407 133.693 24.6642 128.423 24.6642H115.363V46.8987H121.626V38.9978H126.208L132.356 47.6329ZM121.626 34.2433V29.4188H128.003C129.569 29.4188 130.562 30.4326 130.562 31.866C130.562 33.2294 129.569 34.2433 128.003 34.2433H121.626Z" fill="#33FFC2"/>
<path d="M63.9352 46.8987H70.1953V33.2993L75.3887 39.732H79.2837L84.5535 33.1945V46.8987H90.8119V25.3457L85.2409 24L77.298 33.8587L69.4697 24.1398L63.9352 25.3457V46.8987Z" fill="#33FFC2"/>
<path d="M150.922 47.2483C156.993 47.2483 160.659 44.6963 160.659 40.1864C160.659 36.2709 158.139 34.5579 153.595 33.7189L149.852 33.0197C147.37 32.5652 146.568 31.866 146.568 30.9221C146.568 29.8033 147.676 28.9993 150.043 28.9993C152.035 28.9993 153.37 29.5727 154.286 30.8404L160.01 29.5936C158.292 26.1326 154.817 24.3146 149.891 24.3146C144.048 24.3146 140.42 26.8318 140.42 31.2017C140.42 34.9424 143.055 37.0051 147.523 37.8441L151.074 38.5084C153.709 38.9978 154.473 39.697 154.473 40.571C154.473 41.8645 152.869 42.5637 150.654 42.5637C148.411 42.5637 146.533 41.8037 145.36 39.9151L139.618 41.1653C140.764 44.941 144.353 47.2483 150.922 47.2483Z" fill="#33FFC2"/>
<path fill-rule="evenodd" clip-rule="evenodd" d="M180.288 24.6643H163.821V46.8988H180.288L181.679 42.0743H170.084V38.0539H179.773V33.2295H170.084V29.4887H181.679L180.288 24.6643Z" fill="#33FFC2"/>
<path fill-rule="evenodd" clip-rule="evenodd" d="M110.684 24.6633H94.2175V46.8978H110.684L112.075 42.0733H100.48V38.0529H110.169V33.2285H100.48V29.4878H112.075L110.684 24.6633Z" fill="#33FFC2"/>
</g>
<defs>
<filter id="filter0_d_4317_15975" x="8" y="8" width="189.693" height="55.6328" filterUnits="userSpaceOnUse" color-interpolation-filters="sRGB">
<feFlood flood-opacity="0" result="BackgroundImageFix"/>
<feColorMatrix in="SourceAlpha" type="matrix" values="0 0 0 0 0 0 0 0 0 0 0 0 0 0 0 0 0 0 127 0" result="hardAlpha"/>
<feOffset/>
<feGaussianBlur stdDeviation="8"/>
<feComposite in2="hardAlpha" operator="out"/>
<feColorMatrix type="matrix" values="0 0 0 0 0.2 0 0 0 0 1 0 0 0 0 0.760784 0 0 0 0.4 0"/>
<feBlend mode="normal" in2="BackgroundImageFix" result="effect1_dropShadow_4317_15975"/>
<feBlend mode="normal" in="SourceGraphic" in2="effect1_dropShadow_4317_15975" result="shape"/>
</filter>
</defs>
</svg>
